<?xml version="1.0" standalone="no"?>
<!DOCTYPE svg PUBLIC "-//W3C//DTD SVG 20010904//EN"
 "http://www.w3.org/TR/2001/REC-SVG-20010904/DTD/svg10.dtd">
<svg version="1.0" xmlns="http://www.w3.org/2000/svg"
 width="640.000000pt" height="640.000000pt" viewBox="0 0 640.000000 640.000000"
 preserveAspectRatio="xMidYMid meet">
<metadata>
Created by potrace 1.14, written by Peter Selinger 2001-2017
</metadata>
<g transform="translate(0.000000,640.000000) scale(0.100000,-0.100000)"
fill="#000000" stroke="none">
<path d="M3135 6384 c-36 -19 -58 -42 -77 -80 -12 -24 -14 -111 -14 -495 l1
-466 28 -36 c52 -68 131 -91 197 -56 60 32 89 67 97 119 3 22 4 875 1 906 -3
25 -55 88 -88 105 -42 23 -105 24 -145 3z"/>
<path d="M1352 5805 c-98 -43 -129 -176 -61 -259 15 -18 63 -81 84 -111 11
-15 36 -49 55 -75 19 -27 42 -58 50 -70 8 -12 26 -37 40 -55 14 -18 34 -46 45
-61 55 -77 95 -132 114 -156 12 -14 21 -31 21 -37 0 -6 4 -11 9 -11 5 0 24
-23 42 -51 77 -121 194 -140 281 -47 39 43 50 88 38 145 -6 26 -45 86 -137
211 -9 13 -83 114 -164 225 -228 312 -232 318 -266 341 -38 27 -105 31 -151
11z"/>
<path d="M4925 5806 c-35 -15 -53 -35 -150 -170 -38 -54 -79 -109 -90 -124
-11 -14 -70 -96 -132 -182 -62 -85 -117 -160 -122 -166 -4 -5 -27 -38 -50 -71
-48 -70 -56 -126 -26 -183 32 -62 79 -90 151 -92 64 -1 102 29 189 149 43 60
108 149 145 198 36 50 88 121 116 159 27 37 60 84 74 103 106 144 124 176 126
222 6 123 -117 207 -231 157z"/>
<path d="M3126 4883 c-2 -2 -39 -6 -170 -18 -32 -3 -63 -8 -68 -11 -5 -3 -24
-8 -41 -11 -35 -5 -189 -48 -222 -62 -11 -5 -50 -21 -87 -36 -37 -15 -101 -47
-143 -71 -43 -24 -81 -44 -85 -44 -5 0 -10 -4 -12 -8 -1 -5 -30 -27 -63 -49
-177 -120 -375 -336 -493 -540 -23 -39 -42 -76 -42 -82 0 -6 -5 -11 -11 -11
-5 0 -8 -4 -5 -8 3 -5 -6 -27 -20 -51 -13 -24 -24 -52 -24 -62 0 -10 -5 -19
-10 -19 -6 0 -9 -3 -8 -7 1 -5 -7 -37 -19 -73 -27 -82 -43 -142 -49 -183 -5
-37 -12 -72 -14 -72 -1 0 -3 -18 -6 -40 -20 -179 -19 -310 2 -455 19 -123 23
-141 50 -233 14 -45 27 -89 29 -97 2 -8 4 -16 5 -17 2 -2 3 -6 4 -10 1 -5 6
-15 11 -23 5 -8 10 -21 11 -28 4 -23 92 -195 129 -250 19 -30 35 -56 35 -58 0
-10 118 -153 184 -222 146 -154 396 -324 571 -389 22 -8 49 -19 60 -23 44 -18
152 -50 178 -52 15 -1 27 -6 27 -11 0 -5 6 -7 13 -4 6 2 22 0 35 -4 13 -5 60
-12 105 -15 45 -4 87 -9 92 -13 12 -7 209 -5 275 3 25 3 72 8 104 11 33 3 62
8 66 10 9 6 77 18 103 19 9 0 17 4 17 8 0 4 5 8 12 8 25 0 158 44 158 53 0 4
4 6 9 3 9 -6 279 126 290 141 3 5 26 21 51 37 135 87 337 289 436 436 67 100
153 258 169 309 4 13 14 40 23 60 9 20 16 41 18 46 1 6 10 37 20 70 10 33 19
65 20 70 3 14 13 68 19 105 3 17 8 45 12 63 8 38 8 420 0 457 -4 14 -9 44 -12
68 -3 24 -10 54 -15 68 -5 13 -7 24 -4 24 4 0 1 6 -5 13 -6 8 -9 16 -6 19 3 2
-4 31 -15 64 -11 32 -20 59 -20 59 2 0 -19 56 -29 80 -5 11 -17 40 -27 65 -10
25 -21 50 -25 55 -4 6 -21 36 -37 66 -78 148 -225 328 -369 453 -85 74 -177
146 -187 146 -3 0 -30 16 -61 35 -121 78 -385 182 -505 200 -24 4 -48 9 -51
11 -4 2 -36 6 -71 9 -34 3 -83 8 -108 12 -43 6 -199 10 -204 6z"/>
<path d="M6015 4288 c-33 -11 -69 -23 -80 -28 -15 -6 -186 -61 -235 -75 -3 -1
-12 -4 -20 -7 -40 -15 -209 -70 -221 -72 -8 -2 -21 -5 -29 -8 -71 -26 -171
-58 -182 -58 -27 -1 -82 -64 -99 -112 -14 -44 -15 -54 -2 -91 25 -73 83 -118
151 -119 20 0 87 16 147 37 61 20 119 39 130 41 29 7 38 10 55 17 23 10 273
90 288 93 8 1 21 6 30 10 9 4 19 8 22 8 3 1 51 16 107 35 93 30 168 75 168
101 0 4 3 12 8 16 4 4 7 33 7 63 0 68 -30 119 -84 145 -52 25 -93 26 -161 4z"/>
<path d="M242 4284 c-107 -54 -121 -216 -25 -280 33 -22 155 -64 165 -57 5 2
8 -1 8 -6 0 -6 10 -11 23 -11 13 0 27 -4 33 -9 7 -6 73 -28 114 -37 6 -1 36
-12 65 -24 11 -4 47 -16 80 -25 33 -10 65 -20 70 -24 6 -3 17 -7 25 -9 29 -6
35 -8 48 -15 6 -5 12 -6 12 -4 0 2 49 -12 110 -33 132 -45 182 -46 235 -6 20
16 40 38 45 51 5 13 13 26 18 29 8 5 9 71 0 106 -8 36 -74 100 -108 105 -6 1
-392 127 -528 172 -56 19 -113 36 -126 39 -13 2 -41 11 -62 21 -77 33 -157 40
-202 17z"/>
<path d="M1034 2663 c-43 -13 -104 -31 -134 -39 -30 -9 -61 -21 -68 -26 -7 -6
-15 -8 -19 -5 -3 4 -11 3 -17 -2 -7 -6 -23 -12 -36 -15 -14 -3 -59 -17 -100
-31 -41 -14 -82 -27 -90 -28 -8 -1 -19 -5 -25 -8 -17 -10 -279 -93 -287 -91
-13 3 -87 -73 -97 -101 -37 -98 34 -211 142 -223 15 -2 69 10 120 27 50 17 97
32 102 33 22 5 254 80 320 103 39 14 78 26 87 28 9 2 25 8 35 13 10 6 20 9 23
9 13 -4 208 67 226 82 54 44 75 130 46 192 -24 55 -47 75 -103 92 -41 13 -52
12 -125 -10z"/>
<path d="M5265 2683 c-21 -5 -84 -49 -98 -67 -16 -24 -28 -91 -22 -129 5 -29
20 -52 52 -84 24 -25 47 -42 50 -39 3 3 40 -8 82 -23 42 -15 79 -29 84 -29 4
-1 8 -2 10 -3 1 0 9 -2 17 -4 8 -2 105 -34 215 -70 110 -37 205 -68 210 -69
46 -11 136 -40 162 -52 72 -32 160 -9 208 56 20 28 25 45 25 97 0 58 -3 66
-36 102 -32 36 -107 72 -182 86 -9 2 -17 4 -17 5 0 5 -202 67 -207 64 -5 -3
-8 0 -8 5 0 6 -3 10 -7 9 -5 0 -15 1 -23 4 -25 9 -255 83 -260 83 -3 1 -41 13
-86 28 -84 29 -135 38 -169 30z"/>
<path d="M1849 1568 c-34 -16 -61 -42 -101 -99 -16 -22 -87 -120 -388 -532
-51 -71 -94 -140 -96 -152 -1 -13 -5 -28 -8 -33 -9 -16 14 -80 41 -112 34 -41
73 -60 122 -60 85 0 103 17 261 236 62 87 129 177 147 200 18 23 33 46 33 52
0 6 3 12 8 14 9 4 159 208 189 258 78 128 -73 293 -208 228z"/>
<path d="M4460 1578 c-43 -12 -83 -49 -106 -96 -30 -64 -7 -133 80 -243 12
-14 28 -36 36 -49 8 -12 22 -30 30 -40 8 -10 96 -130 194 -267 99 -136 193
-259 210 -273 24 -20 42 -25 93 -26 35 -1 63 3 63 7 0 5 6 9 13 9 14 0 55 42
74 77 21 37 24 79 7 118 -11 28 -248 365 -301 430 -5 6 -55 75 -113 154 -113
156 -134 180 -183 198 -39 14 -52 14 -97 1z"/>
<path d="M3161 1158 c-34 -12 -72 -45 -93 -78 -10 -17 -15 -30 -12 -30 4 0 2
-6 -3 -12 -8 -11 -11 -892 -3 -908 1 -3 3 -9 5 -15 9 -38 22 -54 63 -83 62
-42 120 -44 179 -6 81 53 77 31 79 544 1 420 -1 458 -18 497 -17 41 -62 82
-96 88 -9 2 -17 4 -17 5 0 7 -65 5 -84 -2z"/>
</g>
</svg>
